<svg width="1034" height="500" viewBox="0 0 1034 500" fill="none" xmlns="http://www.w3.org/2000/svg">
<path d="M439.003 330.444C336.669 382.778 285.169 355.778 284.503 249.444C283.836 143.111 335.003 116.944 438.003 170.944C541.003 224.944 541.336 278.111 439.003 330.444Z" fill="url(#paint0_linear_39_6)"/>
<path d="M593.485 226.832C593.283 224.94 592.431 223.467 590.929 222.413C589.442 221.359 587.507 220.832 585.124 220.832C583.449 220.832 582.012 221.084 580.813 221.59C579.615 222.095 578.698 222.781 578.062 223.648C577.427 224.514 577.102 225.503 577.087 226.615C577.087 227.54 577.297 228.341 577.716 229.02C578.149 229.699 578.734 230.276 579.47 230.753C580.207 231.215 581.023 231.605 581.918 231.923C582.813 232.24 583.716 232.507 584.626 232.724L588.785 233.764C590.46 234.154 592.07 234.681 593.615 235.345C595.175 236.009 596.569 236.847 597.796 237.858C599.038 238.869 600.02 240.089 600.742 241.519C601.464 242.949 601.825 244.624 601.825 246.544C601.825 249.144 601.161 251.433 599.832 253.411C598.504 255.375 596.583 256.913 594.07 258.025C591.572 259.123 588.547 259.672 584.994 259.672C581.542 259.672 578.546 259.137 576.004 258.069C573.477 257 571.499 255.44 570.069 253.39C568.654 251.339 567.888 248.841 567.773 245.895H575.679C575.795 247.44 576.271 248.725 577.109 249.75C577.947 250.776 579.037 251.541 580.38 252.047C581.737 252.552 583.254 252.805 584.929 252.805C586.676 252.805 588.207 252.545 589.521 252.025C590.85 251.491 591.89 250.754 592.641 249.815C593.392 248.862 593.774 247.75 593.789 246.479C593.774 245.324 593.435 244.371 592.771 243.62C592.106 242.855 591.175 242.219 589.976 241.714C588.792 241.194 587.406 240.732 585.817 240.327L580.77 239.028C577.116 238.089 574.228 236.667 572.105 234.76C569.997 232.84 568.942 230.291 568.942 227.114C568.942 224.5 569.65 222.211 571.065 220.247C572.495 218.283 574.437 216.759 576.892 215.676C579.347 214.579 582.127 214.03 585.232 214.03C588.38 214.03 591.139 214.579 593.507 215.676C595.89 216.759 597.76 218.268 599.118 220.203C600.475 222.124 601.175 224.334 601.219 226.832H593.485ZM615.51 259L606.109 225.727H614.102L619.951 249.122H620.254L626.233 225.727H634.139L640.118 248.992H640.443L646.205 225.727H654.22L644.797 259H636.631L630.392 236.515H629.937L623.698 259H615.51ZM669.27 259.672C667.161 259.672 665.262 259.296 663.573 258.545C661.897 257.78 660.569 256.653 659.587 255.166C658.619 253.678 658.135 251.844 658.135 249.664C658.135 247.786 658.482 246.234 659.175 245.006C659.868 243.779 660.814 242.797 662.013 242.06C663.212 241.324 664.562 240.768 666.064 240.392C667.58 240.002 669.147 239.721 670.764 239.548C672.714 239.345 674.295 239.165 675.508 239.006C676.721 238.833 677.602 238.573 678.151 238.226C678.714 237.865 678.996 237.309 678.996 236.558V236.428C678.996 234.796 678.512 233.533 677.545 232.637C676.577 231.742 675.183 231.294 673.364 231.294C671.443 231.294 669.92 231.713 668.793 232.551C667.681 233.388 666.93 234.378 666.54 235.518L659.219 234.479C659.796 232.457 660.749 230.767 662.078 229.41C663.407 228.038 665.031 227.013 666.952 226.334C668.873 225.641 670.995 225.294 673.32 225.294C674.923 225.294 676.519 225.482 678.108 225.857C679.696 226.233 681.148 226.854 682.462 227.72C683.776 228.572 684.83 229.735 685.624 231.208C686.433 232.681 686.838 234.522 686.838 236.732V259H679.299V254.429H679.039C678.563 255.354 677.891 256.22 677.025 257.029C676.173 257.823 675.097 258.466 673.797 258.957C672.512 259.433 671.003 259.672 669.27 259.672ZM671.306 253.909C672.88 253.909 674.245 253.599 675.4 252.978C676.555 252.343 677.443 251.505 678.064 250.465C678.7 249.425 679.018 248.292 679.018 247.064V243.143C678.772 243.346 678.353 243.533 677.761 243.707C677.184 243.88 676.534 244.032 675.812 244.162C675.09 244.292 674.375 244.407 673.667 244.508C672.959 244.609 672.346 244.696 671.826 244.768C670.656 244.927 669.609 245.187 668.685 245.548C667.761 245.909 667.031 246.414 666.497 247.064C665.963 247.7 665.695 248.523 665.695 249.534C665.695 250.978 666.223 252.068 667.277 252.805C668.331 253.541 669.674 253.909 671.306 253.909ZM698.405 271.477C697.336 271.477 696.347 271.391 695.437 271.217C694.542 271.058 693.827 270.871 693.293 270.654L695.112 264.545C696.253 264.878 697.271 265.036 698.167 265.022C699.062 265.008 699.849 264.726 700.528 264.177C701.221 263.643 701.806 262.748 702.282 261.491L702.954 259.693L690.888 225.727H699.206L706.875 250.855H707.221L714.911 225.727H723.251L709.929 263.029C709.308 264.791 708.485 266.3 707.46 267.556C706.434 268.827 705.178 269.795 703.691 270.459C702.218 271.138 700.456 271.477 698.405 271.477Z" fill="#9CA3AF"/>
<defs>
<linearGradient id="paint0_linear_39_6" x1="284.496" y1="143.664" x2="284.496" y2="356.336" gradientUnits="userSpaceOnUse">
<stop stop-color="#EF4444"/>
<stop offset="1" stop-color="#EC4899"/>
</linearGradient>
</defs>
</svg>
