<svg width="383" height="180" viewBox="0 0 383 180" fill="none" xmlns="http://www.w3.org/2000/svg">
<path d="M131.702 118.96C101.002 137.8 85.5515 128.08 85.3515 89.8C85.1515 51.52 100.502 42.1 131.402 61.54C162.302 80.98 162.402 100.12 131.702 118.96Z" fill="url(#paint0_linear_40_8)"/>
<path d="M207.485 78.832C207.283 76.9402 206.431 75.4672 204.929 74.413C203.442 73.3588 201.507 72.8317 199.124 72.8317C197.449 72.8317 196.012 73.0844 194.813 73.5898C193.615 74.0953 192.698 74.7812 192.062 75.6477C191.427 76.5142 191.102 77.5034 191.087 78.6154C191.087 79.5397 191.297 80.3411 191.716 81.0199C192.149 81.6986 192.734 82.2763 193.47 82.7528C194.207 83.215 195.023 83.6049 195.918 83.9226C196.813 84.2403 197.716 84.5075 198.626 84.7241L202.785 85.7638C204.46 86.1538 206.07 86.6809 207.615 87.3452C209.175 88.0095 210.569 88.8471 211.796 89.858C213.038 90.8688 214.02 92.0891 214.742 93.5188C215.464 94.9485 215.825 96.6237 215.825 98.5444C215.825 101.144 215.161 103.433 213.832 105.411C212.504 107.375 210.583 108.913 208.07 110.025C205.572 111.123 202.547 111.672 198.994 111.672C195.542 111.672 192.546 111.137 190.004 110.069C187.477 109 185.499 107.44 184.069 105.39C182.654 103.339 181.888 100.841 181.773 97.8945H189.679C189.795 99.4397 190.271 100.725 191.109 101.75C191.947 102.776 193.037 103.541 194.38 104.047C195.737 104.552 197.254 104.805 198.929 104.805C200.676 104.805 202.207 104.545 203.521 104.025C204.85 103.491 205.89 102.754 206.641 101.815C207.392 100.862 207.774 99.7502 207.789 98.4794C207.774 97.3241 207.435 96.371 206.771 95.62C206.106 94.8546 205.175 94.2192 203.976 93.7138C202.792 93.1939 201.406 92.7318 199.817 92.3274L194.77 91.0277C191.116 90.089 188.228 88.6665 186.105 86.7603C183.997 84.8396 182.942 82.2907 182.942 79.1136C182.942 76.4998 183.65 74.2108 185.065 72.2468C186.495 70.2828 188.437 68.7592 190.892 67.6761C193.347 66.5786 196.127 66.0298 199.232 66.0298C202.38 66.0298 205.139 66.5786 207.507 67.6761C209.89 68.7592 211.76 70.2683 213.118 72.2035C214.475 74.1242 215.175 76.3337 215.219 78.832H207.485ZM229.51 111L220.109 77.7273H228.102L233.951 101.122H234.254L240.233 77.7273H248.139L254.118 100.992H254.443L260.205 77.7273H268.22L258.797 111H250.631L244.392 88.5149H243.937L237.698 111H229.51ZM283.27 111.672C281.161 111.672 279.262 111.296 277.573 110.545C275.897 109.78 274.569 108.653 273.587 107.166C272.619 105.678 272.135 103.844 272.135 101.664C272.135 99.7863 272.482 98.2339 273.175 97.0064C273.868 95.7789 274.814 94.7969 276.013 94.0604C277.212 93.3239 278.562 92.7679 280.064 92.3924C281.58 92.0025 283.147 91.7209 284.764 91.5476C286.714 91.3454 288.295 91.1649 289.508 91.006C290.721 90.8327 291.602 90.5728 292.151 90.2262C292.714 89.8652 292.996 89.3092 292.996 88.5582V88.4283C292.996 86.7964 292.512 85.5328 291.545 84.6374C290.577 83.7421 289.183 83.2944 287.364 83.2944C285.443 83.2944 283.92 83.7132 282.793 84.5508C281.681 85.3884 280.93 86.3776 280.54 87.5185L273.219 86.4787C273.796 84.4569 274.749 82.7673 276.078 81.4098C277.407 80.0379 279.031 79.0125 280.952 78.3338C282.873 77.6406 284.995 77.294 287.32 77.294C288.923 77.294 290.519 77.4818 292.108 77.8572C293.696 78.2327 295.148 78.8537 296.462 79.7202C297.776 80.5722 298.83 81.7347 299.624 83.2077C300.433 84.6808 300.838 86.522 300.838 88.7315V111H293.299V106.429H293.039C292.563 107.354 291.891 108.22 291.025 109.029C290.173 109.823 289.097 110.466 287.797 110.957C286.512 111.433 285.003 111.672 283.27 111.672ZM285.306 105.909C286.88 105.909 288.245 105.599 289.4 104.978C290.555 104.343 291.443 103.505 292.064 102.465C292.7 101.425 293.018 100.292 293.018 99.0643V95.1435C292.772 95.3456 292.353 95.5334 291.761 95.7067C291.184 95.88 290.534 96.0316 289.812 96.1616C289.09 96.2915 288.375 96.4071 287.667 96.5082C286.959 96.6093 286.346 96.6959 285.826 96.7681C284.656 96.927 283.609 97.1869 282.685 97.5479C281.761 97.909 281.031 98.4144 280.497 99.0643C279.963 99.6997 279.695 100.523 279.695 101.534C279.695 102.978 280.223 104.068 281.277 104.805C282.331 105.541 283.674 105.909 285.306 105.909ZM312.405 123.477C311.336 123.477 310.347 123.391 309.437 123.217C308.542 123.058 307.827 122.871 307.293 122.654L309.112 116.545C310.253 116.878 311.271 117.036 312.167 117.022C313.062 117.008 313.849 116.726 314.528 116.177C315.221 115.643 315.806 114.748 316.282 113.491L316.954 111.693L304.888 77.7273H313.206L320.875 102.855H321.221L328.911 77.7273H337.251L323.929 115.029C323.308 116.791 322.485 118.3 321.46 119.556C320.434 120.827 319.178 121.795 317.691 122.459C316.218 123.138 314.456 123.477 312.405 123.477Z" fill="#9CA3AF"/>
<defs>
<linearGradient id="paint0_linear_40_8" x1="85.3496" y1="51.719" x2="85.3496" y2="128.281" gradientUnits="userSpaceOnUse">
<stop stop-color="#EF4444"/>
<stop offset="1" stop-color="#EC4899"/>
</linearGradient>
</defs>
</svg>
